<?xml version="1.0" encoding="utf-8"?>
<svg width="339" height="599" viewBox="0 0 339 599" xmlns="http://www.w3.org/2000/svg">
<rect id="frame" x="0" y="0" width="339" height="599" fill="#f7f7f7" stroke="none" stroke-width="0"/>

<!-- Association has -->
<g>
	<line x1="67" y1="303" x2="67" y2="143" stroke="#8073ac" stroke-width="2"/>
	<text x="72" y="185" fill="#b35806" font-family="Verdana" font-size="12">0,1</text>
	<line x1="67" y1="51" x2="67" y2="143" stroke="#8073ac" stroke-width="2"/>
	<text x="72" y="110" fill="#b35806" font-family="Verdana" font-size="12">0,1</text>
	<g>
		<path d="M71 118 a14 14 90 0 1 14 14 V143 h-36 V132 a14 14 90 0 1 14 -14" fill="#b2abd2" stroke="#b2abd2" stroke-width="0"/>
		<path d="M85 143 v11 a14 14 90 0 1 -14 14 H63 a14 14 90 0 1 -14 -14 V143 H36" fill="#d8daeb" stroke="#d8daeb" stroke-width="0"/>
		<rect x="49" y="118" width="36" height="50" fill="none" rx="14" stroke="#8073ac" stroke-width="2"/>
		<line x1="49" y1="143" x2="85" y2="143" stroke="#8073ac" stroke-width="1"/>
		<text x="56" y="135.75" fill="#000" font-family="Verdana" font-size="12">has</text>
	</g>
</g>

<!-- Association be -->
<g>
	<line x1="297" y1="303" x2="191" y2="303" stroke="#8073ac" stroke-width="2"/>
	<text x="237" y="320" fill="#b35806" font-family="Verdana" font-size="12">0,N</text>
	<line x1="191" y1="514" x2="191" y2="303" stroke="#8073ac" stroke-width="2"/>
	<text x="196" y="430" fill="#b35806" font-family="Verdana" font-size="12">1,1</text>
	<g>
		<path d="M192 278 a14 14 90 0 1 14 14 V303 h-30 V292 a14 14 90 0 1 14 -14" fill="#b2abd2" stroke="#b2abd2" stroke-width="0"/>
		<path d="M206 303 v11 a14 14 90 0 1 -14 14 H190 a14 14 90 0 1 -14 -14 V303 H30" fill="#d8daeb" stroke="#d8daeb" stroke-width="0"/>
		<rect x="176" y="278" width="30" height="50" fill="none" rx="14" stroke="#8073ac" stroke-width="2"/>
		<line x1="176" y1="303" x2="206" y2="303" stroke="#8073ac" stroke-width="1"/>
		<text x="183" y="295.75" fill="#000" font-family="Verdana" font-size="12">be</text>
	</g>
</g>

<!-- Association like -->
<g>
	<line x1="191" y1="514" x2="67" y2="514" stroke="#8073ac" stroke-width="2"/>
	<text x="90" y="531" fill="#b35806" font-family="Verdana" font-size="12">0,N</text>
	<line x1="67" y1="303" x2="67" y2="514" stroke="#8073ac" stroke-width="2"/>
	<text x="72" y="430" fill="#b35806" font-family="Verdana" font-size="12">0,N</text>
	<g>
		<path d="M71 489 a14 14 90 0 1 14 14 V514 h-36 V503 a14 14 90 0 1 14 -14" fill="#b2abd2" stroke="#b2abd2" stroke-width="0"/>
		<path d="M85 514 v11 a14 14 90 0 1 -14 14 H63 a14 14 90 0 1 -14 -14 V514 H36" fill="#d8daeb" stroke="#d8daeb" stroke-width="0"/>
		<rect x="49" y="489" width="36" height="50" fill="none" rx="14" stroke="#8073ac" stroke-width="2"/>
		<line x1="49" y1="514" x2="85" y2="514" stroke="#8073ac" stroke-width="1"/>
		<text x="56" y="506.75" fill="#000" font-family="Verdana" font-size="12">like</text>
	</g>
</g>

<!-- Entity CATEGORY -->
<g>
	<g>
		<rect x="20" y="9" width="94" height="25" fill="#fdb863" stroke="#fdb863" stroke-width="0" opacity="1"/>
		<rect x="20" y="34" width="94" height="59" fill="#fee0b6" stroke="#fee0b6" stroke-width="0" opacity="1"/>
		<rect x="20" y="9" width="94" height="84" fill="none" stroke="#e08214" stroke-width="2" opacity="1"/>
		<line x1="20" y1="34" x2="114" y2="34" stroke="#e08214" stroke-width="1"/>
	</g>
	<text x="34" y="26.75" fill="#000" font-family="Verdana" font-size="12">CATEGORY</text>
	<text x="25" y="51.8" fill="#000" font-family="Verdana" font-size="12">codeCategory</text>
	<line x1="25" y1="54" x2="109" y2="54" stroke="#000" stroke-width="1"/>
	<text x="25" y="68.8" fill="#000" font-family="Verdana" font-size="12">name</text>
	<text x="25" y="85.8" fill="#000" font-family="Verdana" font-size="12">image</text>
</g>

<!-- Entity CARD -->
<g>
	<g>
		<rect x="9" y="193" width="116" height="25" fill="#fdb863" stroke="#fdb863" stroke-width="0" opacity="1"/>
		<rect x="9" y="218" width="116" height="195" fill="#fee0b6" stroke="#fee0b6" stroke-width="0" opacity="1"/>
		<rect x="9" y="193" width="116" height="220" fill="none" stroke="#e08214" stroke-width="2" opacity="1"/>
		<line x1="9" y1="218" x2="125" y2="218" stroke="#e08214" stroke-width="1"/>
	</g>
	<text x="50" y="210.75" fill="#000" font-family="Verdana" font-size="12">CARD</text>
	<text x="14" y="235.8" fill="#000" font-family="Verdana" font-size="12">scientific name</text>
	<line x1="14" y1="238" x2="105" y2="238" stroke="#000" stroke-width="1"/>
	<text x="14" y="252.8" fill="#000" font-family="Verdana" font-size="12">vernacular name</text>
	<text x="14" y="269.8" fill="#000" font-family="Verdana" font-size="12">category</text>
	<text x="14" y="286.8" fill="#000" font-family="Verdana" font-size="12">image</text>
	<text x="14" y="303.8" fill="#000" font-family="Verdana" font-size="12">min PH</text>
	<text x="14" y="320.8" fill="#000" font-family="Verdana" font-size="12">max PH</text>
	<text x="14" y="337.8" fill="#000" font-family="Verdana" font-size="12">min temperature</text>
	<text x="14" y="354.8" fill="#000" font-family="Verdana" font-size="12">max temperature</text>
	<text x="14" y="371.8" fill="#000" font-family="Verdana" font-size="12">country</text>
	<text x="14" y="388.8" fill="#000" font-family="Verdana" font-size="12">description</text>
	<text x="14" y="405.8" fill="#000" font-family="Verdana" font-size="12">capacity</text>
</g>

<!-- Entity ROLE -->
<g>
	<g>
		<rect x="264" y="269" width="66" height="25" fill="#fdb863" stroke="#fdb863" stroke-width="0" opacity="1"/>
		<rect x="264" y="294" width="66" height="43" fill="#fee0b6" stroke="#fee0b6" stroke-width="0" opacity="1"/>
		<rect x="264" y="269" width="66" height="68" fill="none" stroke="#e08214" stroke-width="2" opacity="1"/>
		<line x1="264" y1="294" x2="330" y2="294" stroke="#e08214" stroke-width="1"/>
	</g>
	<text x="281" y="286.75" fill="#000" font-family="Verdana" font-size="12">ROLE</text>
	<text x="269" y="311.8" fill="#000" font-family="Verdana" font-size="12">codeRole</text>
	<line x1="269" y1="314" x2="324" y2="314" stroke="#000" stroke-width="1"/>
	<text x="269" y="328.8" fill="#000" font-family="Verdana" font-size="12">name</text>
</g>

<!-- Entity USER -->
<g>
	<g>
		<rect x="117" y="438" width="148" height="25" fill="#fdb863" stroke="#fdb863" stroke-width="0" opacity="1"/>
		<rect x="117" y="463" width="148" height="127" fill="#fee0b6" stroke="#fee0b6" stroke-width="0" opacity="1"/>
		<rect x="117" y="438" width="148" height="152" fill="none" stroke="#e08214" stroke-width="2" opacity="1"/>
		<line x1="117" y1="463" x2="265" y2="463" stroke="#e08214" stroke-width="1"/>
	</g>
	<text x="174" y="455.75" fill="#000" font-family="Verdana" font-size="12">USER</text>
	<text x="122" y="480.8" fill="#000" font-family="Verdana" font-size="12">codeUser</text>
	<line x1="122" y1="483" x2="178" y2="483" stroke="#000" stroke-width="1"/>
	<text x="122" y="497.8" fill="#000" font-family="Verdana" font-size="12">pseudo</text>
	<text x="122" y="514.8" fill="#000" font-family="Verdana" font-size="12">name</text>
	<text x="122" y="531.8" fill="#000" font-family="Verdana" font-size="12">firstname</text>
	<text x="122" y="548.8" fill="#000" font-family="Verdana" font-size="12">email</text>
	<text x="122" y="565.8" fill="#000" font-family="Verdana" font-size="12">password</text>
	<text x="122" y="582.8" fill="#000" font-family="Verdana" font-size="12">password confirmation</text>
</g>
</svg>